<?xml version="1.0" encoding="utf-8"?>
<!-- Generator: Adobe Illustrator 19.2.1, SVG Export Plug-In . SVG Version: 6.00 Build 0)  -->
<svg version="1.1" id="Ebene_1" xmlns="http://www.w3.org/2000/svg" xmlns:xlink="http://www.w3.org/1999/xlink" x="0px" y="0px"
	 viewBox="0 0 291.2 82.8" style="enable-background:new 0 0 291.2 82.8;" xml:space="preserve">
<style type="text/css">
	.st0{fill-rule:evenodd;clip-rule:evenodd;}
</style>
<g>
	<path d="M2,28.5v39.3h8.1V28.5c3.8-4,10.4-7.4,14.6-7.4c2.4,0,4.7,0.8,5.8,2.2c1.6,1.7,1.9,3.2,1.9,8.8v35.7h8.4V27.8
		c0-2.1-0.4-4.2-1.3-6.1c-2.1-4.7-7.2-7.7-12.9-7.7C21,13.9,15.5,16.5,10,22c0-3.1-0.5-5.3-1.9-8.3L0,16C1.8,20,2,21.2,2,28.5
		L2,28.5z"/>
	<path class="st0" d="M76.3,62.1c-5.3,0-10.2-1.9-13.1-6.5c-1.8-2.8-2.4-6.6-2.4-11.6v-1.3h33v-1.2c-0.2-12.6-1.5-17.6-6-22.3
		c-3.5-3.8-8.6-5.8-14.3-5.8C67,13.6,61.8,16,57.5,21c-4.6,5.2-6.4,11-6.4,19.9C51.2,58.4,60,69,74.6,69c6.8,0,13.1-2.3,17.8-6.6
		l-3.2-5.3C85.5,60.5,81.4,62.1,76.3,62.1L76.3,62.1z M72.9,20.1c4,0,7.7,1.8,9.5,4.7c1.6,2.5,2.3,6,2.4,11.8H60.7
		C61.1,25.7,65.4,20.1,72.9,20.1L72.9,20.1z"/>
	<polygon points="118.4,38.6 98.7,67.8 108.4,67.8 122.7,45.4 137.1,67.8 147.1,67.8 126.9,38.6 142.5,15.3 132.8,15.3 122.7,32.6 
		112.4,15.3 102.2,15.3 118.4,38.6 	"/>
	<path d="M164.5,14.9c0-7,1.1-14.9,1.1-14.9L157,1.9l-0.1,1.4c-0.5,5.4-0.7,8.4-0.7,11v0.6h-6.9v6.5h6.9v36.1
		c0,5.3,1.4,8.7,5.1,10.5c2,1,4.1,1.5,6.9,1.5c3.7,0,6.7-0.7,9.3-2.1l-1.2-5.3c-1.5,0.7-3,1.1-5.3,1.1c-5.2,0-6.8-2-6.8-7.8V21.4
		h11.1l2.5-6.5H164.5L164.5,14.9z"/>
	<path d="M184.3,36.6l1.4,3.4c3.8-1.5,7.4-2.9,10.9-5.1v27.9h-7.4v5h21v-5h-7.4V27.3H198L184.3,36.6L184.3,36.6z"/>
	<path d="M233.7,62.7c-2.8,0-6.3,0.2-8.2,0.3l7.2-5.2c4.8-3.4,9.4-7.3,11.8-9.9c2.7-2.9,4.3-6.6,4.3-10c0-7.3-6.1-11.5-14.3-11.5
		c-5.8,0-10.8,2.2-16.8,7.4l2.6,3.2l0.6-0.4c5.4-3.8,8.4-4.8,12.1-4.8c5.4,0,8.5,2.5,8.5,7c0,2.8-0.6,4-1.8,6.1
		c-1.2,2-4.2,4.5-8.8,8.3l-6.3,5.3c-2.3,1.9-5.6,4.3-5.6,4.3v5h30.6l1.3-5.1H233.7L233.7,62.7z"/>
	<path d="M262.2,55.1c2.3-1,6.2-1.8,10.2-1.8c7.4,0,11.9,3.8,11.9,10.4c0,8.2-7.6,14.6-17.3,14.6c-2.6,0-4.2-0.3-6-1.1l1.1,4.8
		c2.1,0.6,3.5,0.8,5.9,0.8c12.4,0,23.1-7.4,23.1-19c0-9.9-7.4-15.2-16.6-15.2c-2.1,0-2.7,0.1-5.4,0.4l1.4-15.5h17l1-5.3h-23.7
		L262.2,55.1L262.2,55.1z"/>
</g>
</svg>
